/* XPM */
static char *graphic[] = {
/* width height num_colors chars_per_pixel */
"32 32 838 2", 
/* colors */
"   c None",
".  c None",
"X  c #00100E",
"o  c #FEBF06",
"O  c #0020A8",
"+  c #0025B8",
"@  c #564B11",
"#  c #94822B",
"$  c #011827",
"%  c #003EC2",
"&  c None",
"*  c #FFFF38",
"=  c None",
"-  c #E4C42F",
";  c #96781B",
":  c #E5B218",
">  c #614A0F",
",  c #E1A91A",
"<  c #000741",
"1  c #674A1A",
"2  c None",
"3  c #001B3B",
"4  c None",
"5  c #001E78",
"6  c #FFD80B",
"7  c None",
"8  c #D98F00",
"9  c #FFDB02",
"0  c #573803",
"q  c #9E6B05",
"w  c #CEAD28",
"e  c #C59205",
"r  c None",
"t  c None",
"y  c None",
"u  c #FFDD04",
"i  c #000001",
"p  c #002371",
"a  c #000D18",
"s  c #392A0C",
"d  c None",
"f  c #00100F",
"g  c #F2C613",
"h  c None",
"j  c #372B0C",
"k  c #FFFF39",
"l  c #001B53",
"z  c None",
"x  c #131C11",
"c  c #001470",
"v  c #802400",
"b  c #42525C",
"n  c #FDDA30",
"m  c None",
"M  c #0038BE",
"N  c None",
"B  c #E2A916",
"V  c #537C9A",
"C  c None",
"Z  c #CD9E31",
"A  c #345B8C",
"S  c #001969",
"D  c #D6A014",
"F  c None",
"G  c #000E9A",
"H  c #79570A",
"J  c None",
"K  c #C89F24",
"L  c #8D3E00",
"P  c #FFDF1E",
"I  c #000002",
"U  c #063A5A",
"Y  c #001615",
"T  c #001B25",
"R  c #EAC610",
"E  c #DBAE1D",
"W  c #C77F0E",
"Q  c #D19301",
"!  c None",
"~  c #3E4A54",
"^  c #002450",
"/  c #CA9001",
"(  c #001D27",
")  c #F7D72B",
"_  c #4E3A0C",
"`  c #57533F",
"'  c #FFD60B",
"]  c #E4BA10",
"[  c None",
"{  c #AE6800",
"}  c #00188C",
"|  c #0042DF",
" . c #FEC10A",
".. c #FFD516",
"X. c #5E4911",
"o. c #F9F137",
"O. c #00145A",
"+. c #818158",
"@. c #EDCB28",
"#. c #F0C821",
"$. c #BA7C00",
"%. c #BF8000",
"&. c #001E34",
"*. c #DD9800",
"=. c #D18E09",
"-. c None",
";. c None",
":. c None",
">. c #EAA500",
",. c #AE7500",
"<. c #000AAF",
"1. c #001C1B",
"2. c None",
"3. c #CD9009",
"4. c #0043EC",
"5. c #FDE32F",
"6. c #7A420D",
"7. c None",
"8. c #D8AF0C",
"9. c #00173A",
"0. c None",
"q. c #00122A",
"w. c #FFC307",
"e. c #B4890C",
"r. c #5F4B0E",
"t. c #EEB807",
"y. c #001521",
"u. c #E6B70E",
"i. c None",
"p. c #0021CF",
"a. c #2053AC",
"s. c #E1A502",
"d. c #AE6801",
"f. c #E1B21C",
"g. c #FAC109",
"h. c #D5AC10",
"j. c None",
"k. c #FFBF04",
"l. c #002267",
"z. c #001A1A",
"x. c #001F2A",
"c. c #00111E",
"v. c #C1960C",
"b. c #BC9611",
"n. c #33320D",
"m. c #303A1E",
"M. c #FFDB05",
"N. c #001752",
"B. c None",
"V. c #C08803",
"C. c #000B19",
"Z. c #997718",
"A. c #000305",
"S. c #AFA940",
"D. c #004FE0",
"F. c None",
"G. c #001954",
"H. c #002374",
"J. c #FAD224",
"K. c None",
"L. c #002B7B",
"P. c #101714",
"I. c #7E7424",
"U. c #001012",
"Y. c #B36104",
"T. c None",
"R. c #FDFC50",
"E. c #C0900A",
"W. c #002F96",
"Q. c #F2E33B",
"!. c #816E0F",
"~. c #001214",
"^. c #B07200",
"/. c #C48200",
"(. c #CC8B00",
"). c #001F2B",
"_. c #CFB43F",
"`. c #785B0C",
"'. c None",
"]. c None",
"[. c #CB9200",
"{. c #001C1D",
"}. c #AB8E1C",
"|. c #DEAC0E",
" X c None",
".X c None",
"XX c #EFDD2F",
"oX c None",
"OX c #001782",
"+X c #FFF43F",
"@X c None",
"#X c #E3B413",
"$X c #C58C04",
"%X c #FFE806",
"&X c #594C0E",
"*X c #CE9006",
"=X c #00181A",
"-X c #DCDC5A",
";X c #EAC815",
":X c #FFFF3D",
">X c #003EC7",
",X c #002531",
"<X c #000A0E",
"1X c None",
"2X c #DAB722",
"3X c #FDDE42",
"4X c #001F72",
"5X c #000C10",
"6X c #00001D",
"7X c #001E7D",
"8X c #003490",
"9X c #FFFD53",
"0X c #F7C00F",
"qX c #FBC90D",
"wX c #FFFF55",
"eX c #001EAC",
"rX c #482603",
"tX c #FFD502",
"yX c #6B5A0A",
"uX c #FFFF0F",
"iX c #001273",
"pX c #000006",
"aX c #CFA839",
"sX c #252B14",
"dX c #001D71",
"fX c #00117E",
"gX c #F0D014",
"hX c #001524",
"jX c #0034A8",
"kX c #001E95",
"lX c #57521F",
"zX c #001648",
"xX c #E3AC0C",
"cX c #000208",
"vX c None",
"bX c #BC7902",
"nX c #00328F",
"mX c #B29818",
"MX c #D29300",
"NX c #FFBC10",
"BX c #F2C634",
"VX c #635225",
"CX c #E7DC4F",
"ZX c #D89A09",
"AX c #D09400",
"SX c None",
"DX c #F1B100",
"FX c #D38D0D",
"GX c #C3860B",
"HX c #00052E",
"JX c None",
"KX c #EDB009",
"LX c #D09602",
"PX c #D59A02",
"IX c #822A00",
"UX c None",
"YX c #D9AE16",
"TX c #002AA0",
"RX c #E0B736",
"EX c #965601",
"WX c #0013DE",
"QX c #AE8A0D",
"!X c #000517",
"~X c None",
"^X c #FFD40E",
"/X c #003AAE",
"(X c #00080E",
")X c #0045F2",
"_X c #A49740",
"`X c #254079",
"'X c #000209",
"]X c #020400",
"[X c #000C29",
"{X c #936F0F",
"}X c #0B1222",
"|X c #8C690D",
" o c None",
".o c #151002",
"Xo c #001217",
"oo c None",
"Oo c #37300B",
"+o c #001632",
"@o c #00052F",
"#o c None",
"$o c #001122",
"%o c #3F3A2F",
"&o c #002ED3",
"*o c #FDE334",
"=o c #A08316",
"-o c #B3AF4B",
";o c #C9900C",
":o c None",
">o c #00203B",
",o c #000008",
"<o c #0C3066",
"1o c #FFD40F",
"2o c #AF6106",
"3o c #CE8802",
"4o c #C38500",
"5o c #C88900",
"6o c None",
"7o c #0023A7",
"8o c #1D2418",
"9o c #DFB70A",
"0o c #EAA909",
"qo c #FFD611",
"wo c None",
"eo c #7A9C8F",
"ro c #FCCB0C",
"to c #002AFF",
"yo c #F5D618",
"uo c #BF8F08",
"io c #DFA002",
"po c #272E1A",
"ao c #E09B04",
"so c #AD5E03",
"do c #003EB3",
"fo c None",
"go c #002131",
"ho c #153990",
"jo c None",
"ko c #6A8041",
"lo c #001E23",
"zo c None",
"xo c #DAB324",
"co c None",
"vo c #585B30",
"bo c #C46F00",
"no c #E4A201",
"mo c #00020B",
"Mo c #021F25",
"No c #00181E",
"Bo c None",
"Vo c #00176F",
"Co c #162119",
"Zo c #001432",
"Ao c #000502",
"So c #B66900",
"Do c #D7A511",
"Fo c #EBD638",
"Go c #ECEE5E",
"Ho c #FDF342",
"Jo c #BD9008",
"Ko c None",
"Lo c #000C14",
"Po c #001461",
"Io c #E8AE0E",
"Uo c #F4C335",
"Yo c #122224",
"To c #0007BF",
"Ro c #001075",
"Eo c #003FD8",
"Wo c #001712",
"Qo c #31381D",
"!o c None",
"~o c #7D7216",
"^o c #E9B20C",
"/o c #004AD6",
"(o c #62705F",
")o c #DEA60F",
"_o c #C98D00",
"`o c #B07900",
"'o c #002334",
"]o c #444D4A",
"[o c #001E24",
"{o c #E9BE35",
"}o c #8C6E0E",
"|o c None",
" O c #CBA417",
".O c None",
"XO c #000A13",
"oO c #7B2300",
"OO c None",
"+O c #0033B7",
"@O c #7E2800",
"#O c #DCC033",
"$O c #001125",
"%O c #0C2A4C",
"&O c #FFFF2B",
"*O c #001076",
"=O c #775A0B",
"-O c #061615",
";O c #FCDF37",
":O c #FCCC1B",
">O c #ADAC60",
",O c #E1AC04",
"<O c #DAA904",
"1O c #B96C00",
"2O c #7E2E06",
"3O c None",
"4O c #B0983F",
"5O c #FFFF43",
"6O c #F4C62A",
"7O c None",
"8O c #0041C4",
"9O c #947913",
"0O c #F3B60A",
"qO c None",
"wO c #004EDB",
"eO c #F3C618",
"rO c #00121B",
"tO c #311803",
"yO c #001512",
"uO c #D6A40A",
"iO c #0040CF",
"pO c #0D0C05",
"aO c #E8C60D",
"sO c None",
"dO c #F2D31D",
"fO c #C88500",
"gO c #343B1D",
"hO c #DFB322",
"jO c #0030AA",
"kO c #C18200",
"lO c #C68600",
"zO c None",
"xO c None",
"cO c None",
"vO c #6D0E00",
"bO c #000908",
"nO c #EFC723",
"mO c #002AA5",
"MO c #0029F6",
"NO c #FFFF15",
"BO c #C4860B",
"VO c #002673",
"CO c #1E281A",
"ZO c #00101A",
"AO c #DBB522",
"SO c #FCD625",
"DO c #C28C04",
"FO c #002028",
"GO c None",
"HO c #001C3C",
"JO c #423008",
"KO c #C98608",
"LO c #1A1502",
"PO c #002C90",
"IO c #001F33",
"UO c #000410",
"YO c #000000",
"TO c #D7A204",
"RO c #0F0A0B",
"EO c None",
"WO c #5B3301",
"QO c #C2850A",
"!O c None",
"~O c #39352D",
"^O c #525644",
"/O c #001620",
"(O c #000000",
")O c #EBDF37",
"_O c #0029B1",
"`O c #DFB728",
"'O c #004CDB",
"]O c #001A3B",
"[O c #000000",
"{O c #001D32",
"}O c #00164F",
"|O c #0030C3",
" + c #EB9F00",
".+ c #C4A025",
"X+ c #6E3B00",
"o+ c #E1B00A",
"O+ c #DA9400",
"++ c #001A24",
"@+ c #000E31",
"#+ c #998D4A",
"$+ c #001514",
"%+ c #ECD636",
"&+ c #5E0000",
"*+ c #7D690C",
"=+ c #C28600",
"-+ c #CC8E00",
";+ c #BA6301",
":+ c #EBB205",
">+ c #DCA605",
",+ c #FFFF2E",
"<+ c #FCC50C",
"1+ c #000C18",
"2+ c #9D7819",
"3+ c #000001",
"4+ c None",
"5+ c #000000",
"6+ c #EBB609",
"7+ c #000E60",
"8+ c #002136",
"9+ c #000C8D",
"0+ c #9A7B1E",
"q+ c #000000",
"w+ c #1C3D73",
"e+ c #000737",
"r+ c #87620C",
"t+ c #C08208",
"y+ c #D4BC2C",
"u+ c #D8A200",
"i+ c #00000E",
"p+ c #523F13",
"a+ c #E0AB00",
"s+ c #001572",
"d+ c #001918",
"f+ c #8C3700",
"g+ c #000939",
"h+ c #1F1E0E",
"j+ c #0034F6",
"k+ c #FEE62A",
"l+ c #001823",
"z+ c #E8AB04",
"x+ c #D9AF12",
"c+ c #D9AF12",
"v+ c #E49C01",
"b+ c None",
"n+ c #A05400",
"m+ c #284C4C",
"M+ c #E1AA06",
"N+ c #E4BD12",
"B+ c #AE8C14",
"V+ c #001466",
"C+ c #000000",
"Z+ c #756B26",
"A+ c #000F10",
"S+ c None",
"D+ c #CD9401",
"F+ c #052874",
"G+ c #001717",
"H+ c #727429",
"J+ c #001495",
"K+ c #00090B",
"L+ c #002598",
"P+ c #3C3809",
"I+ c #000A2F",
"U+ c #001FD9",
"Y+ c #B76B02",
"T+ c #8A7516",
"R+ c #150E08",
"E+ c #C37D00",
"W+ c #BC7A00",
"Q+ c #BB891E",
"!+ c #000C31",
"~+ c #002A91",
"^+ c #CC8C00",
"/+ c #002878",
"(+ c #B77D14",
")+ c #162416",
"_+ c #CD7E06",
"`+ c #383E31",
"'+ c #838451",
"]+ c #CD9200",
"[+ c #761900",
"{+ c None",
"}+ c #001853",
"|+ c #E8BE0A",
" @ c #001A26",
".@ c #9A9E61",
"X@ c #916200",
"o@ c #000C1A",
"O@ c #E6A50B",
"+@ c #DE9F02",
"@@ c #0027F8",
"#@ c #817A3C",
"$@ c #0024BB",
"%@ c #DDA400",
"&@ c #D4AD36",
"*@ c #E7A304",
"=@ c #F5B402",
"-@ c #002138",
";@ c #944405",
":@ c #001718",
">@ c #D5AB0E",
",@ c #F9D313",
"<@ c #001F65",
"1@ c #DDB40E",
"2@ c #001B33",
"3@ c #2E5895",
"4@ c #FFFF19",
"5@ c #833300",
"6@ c #CFB33C",
"7@ c #BA9209",
"8@ c #DDB240",
"9@ c #8B3C00",
"0@ c #9D4D00",
"q@ c #001315",
"w@ c None",
"e@ c #FFFF48",
"r@ c #000F29",
"t@ c #AA5A00",
"y@ c None",
"u@ c #A87D06",
"i@ c #31290B",
"p@ c None",
"a@ c #000924",
"s@ c #000414",
"d@ c #000A48",
"f@ c #906B0A",
"g@ c #DE9F03",
"h@ c #E5B725",
"j@ c #DDAC08",
"k@ c #D2AE16",
"l@ c #000616",
"z@ c #765F0F",
"x@ c #B87306",
"c@ c #EDBE23",
"v@ c #DAD23E",
"b@ c None",
"n@ c #564D1F",
"m@ c #FFFF60",
"M@ c #CB8400",
"N@ c #EBB517",
"B@ c #FFCC11",
"V@ c #E29900",
"C@ c #A66900",
"Z@ c #001C58",
"A@ c #CC8A00",
"S@ c #001E2B",
"D@ c #FDDF21",
"F@ c #E4C628",
"G@ c #D4B42E",
"H@ c #0034B3",
"J@ c #000213",
"K@ c #12211F",
"L@ c #001826",
"P@ c #CD8704",
"I@ c #030505",
"U@ c #B57A11",
"Y@ c None",
"T@ c #D4AB36",
"R@ c #092F73",
"E@ c #002785",
"W@ c #B67916",
"Q@ c #964C03",
"!@ c #B47506",
"~@ c #000029",
"^@ c #26280C",
"/@ c #141320",
"(@ c #C68606",
")@ c #7E2D00",
"_@ c None",
"`@ c #FFD50E",
"'@ c #4B3E2B",
"]@ c #AF840B",
"[@ c #FFFF1B",
"{@ c #001115",
"}@ c #000005",
"|@ c #A05000",
" # c #997511",
".# c #9D7A0D",
"X# c #E4B016",
"o# c #A0600E",
"O# c #001827",
"+# c #00202E",
"@# c #000F2B",
"## c #7D6228",
"$# c #BE7B05",
"%# c #B59010",
"&# c #EFC61D",
"*# c #000D12",
"=# c #E0B50D",
"-# c #DCA60A",
";# c #0F0B06",
":# c #FBC208",
"># c #C67E00",
",# c #FFD81D",
"<# c #00197A",
"1# c #EDCA14",
"2# c #161E14",
"3# c #CD8907",
"4# c #9E812A",
"5# c #FFD604",
"6# c #573305",
"7# c #D59207",
"8# c #D3A91A",
"9# c #001038",
"0# c #8A6E0A",
"q# c #000B28",
"w# c #CC8800",
"e# c #DCB839",
"r# c #2C320D",
"t# c #0017D6",
"y# c #001F22",
"u# c None",
"i# c #B87C04",
"p# c #ECC13C",
"a# c #D19C0E",
"s# c #000F43",
"d# c #FFFF1C",
"f# c #D29200",
"g# c #D4A734",
"h# c None",
"j# c #FBC60C",
"k# c #00123A",
"l# c #00191D",
"z# c None",
"x# c #001021",
"c# c #D2A20E",
"v# c #CE9400",
"b# c None",
"n# c None",
"m# c #051035",
"M# c #BDA71A",
"N# c #001223",
"B# c #002D46",
"V# c #DE9D04",
"C# c #00151A",
"Z# c #6E4604",
"A# c #883300",
"S# c #002741",
"D# c #FFFF34",
"F# c #00002B",
"G# c #EAB709",
"H# c #DBA612",
"J# c #9D4900",
"K# c #001935",
"L# c #001A9F",
"P# c #002692",
"I# c #AC5500",
"U# c #0038B9",
"Y# c #001039",
"T# c #000E20",
"R# c #63665B",
"E# c #EFEF65",
"W# c #000014",
"Q# c None",
"!# c #2D210B",
"~# c #EEA205",
"^# c #D8BF2B",
"/# c #001829",
"(# c #000553",
")# c #D5B426",
"_# c #F8B503",
"`# c #A5822A",
"'# c #001AB7",
"]# c #00194D",
"[# c #E3A105",
"{# c #000804",
"}# c #D49D0C",
"|# c #B37200",
" $ c #987A17",
".$ c #001812",
"X$ c #431B00",
"o$ c #B97909",
"O$ c #4B6371",
"+$ c #002E54",
"@$ c #000911",
"#$ c #67797A",
"$$ c #FDEC3C",
"%$ c #EFC63C",
"&$ c #F2C20C",
"*$ c #F0AF12",
"=$ c #CC9300",
"-$ c #00081C",
";$ c #DDA21B",
":$ c #F1BE0F",
">$ c #84843A",
",$ c #000430",
"<$ c #F6E538",
"1$ c #BD8B1B",
"2$ c #D2AF27",
"3$ c #00131A",
"4$ c #D69D02",
"5$ c #272715",
"6$ c #0A0A07",
"7$ c #371804",
"8$ c #001B21",
"9$ c #80620F",
"0$ c #A94E00",
"q$ c #D9AA09",
"w$ c #001A72",
"e$ c #00100C",
"r$ c #A55000",
"t$ c #000419",
"y$ c #E5E65A",
"u$ c None",
"i$ c #FFFF36",
"p$ c #DAA416",
"a$ c #000200",
"s$ c #C7A312",
"d$ c #BA8806",
"f$ c #516D89",
"g$ c #001C2E",
"h$ c #BD7C03",
"j$ c #F9BD06",
"k$ c #041720",
"l$ c #002262",
"z$ c #E3B826",
"x$ c #001119",
"c$ c #FFE90C",
"v$ c #B5A534",
"b$ c #D1A10B",
"n$ c #BC7710",
"m$ c #1F2C22",
"M$ c #FFEF40",
"N$ c #001534",
"B$ c #D9C32B",
"V$ c #000B14",
"C$ c #D69D03",
"Z$ c #DBA103",
"A$ c #00182B",
"S$ c #D7A00C",
"D$ c #50450F",
"F$ c #FFF825",
"G$ c #AD6802",
"H$ c #D1AF39",
"J$ c #000806",
"K$ c #DCA40D",
"L$ c #C78A09",
"P$ c #E6C421",
"I$ c #0026DB",
"U$ c #00002E",
"Y$ c #F4FA62",
"T$ c #C17108",
"R$ c #DDBA1A",
"E$ c #DBAD0E",
"W$ c #D1A710",
"Q$ c #F6DB31",
"!$ c #DC9A04",
"~$ c #BB7408",
"^$ c #00081E",
"/$ c #EEC40E",
"($ c #B09217",
")$ c #FFE818",
"_$ c #D2AE1E",
"`$ c #CD7F03",
"'$ c #FFFF4F",
"]$ c #001659",
"[$ c #000E0C",
"{$ c #DDA313",
"}$ c #0032E6",
"|$ c None",
" % c #6C5609",
".% c #000000",
"X% c #000F30",
"o% c #C28408",
"O% c None",
"+% c #533E1D",
"@% c #8F690D",
"#% c #003AA7",
"$% c #C6A00C",
"%% c #07130E",
/* pixels */
"                  b+C ~XJXH$T@g#&@aXzo. h#F.                    ",
"              z#UXEOZ (+V.=+)@5@[.n+i#DoG@Q#u$.X                ",
"            O%xORXAO8#2OQ@]+[+f+a+J#-+W+0@t+c@T.{+=             ",
"        !Od e#Fo^#2$@.n$T$*@1O>#no;+=@`$*Xq$9oYXp#GO7           ",
"      b+p@v@R.wXXX&#SO4#%o}XmoI bOe$r#=OL$`@a#E.x+BXb@y         ",
"      n#8@y+)O'$k -ow+*O7+s#$OX f x$N#r@Mo~o}#S$aOE$Uoi.t       ",
"    |${o2X)#P$i$eo|O_OPOVOZ@HO8${.lo+#8+3 N$m.8.^od.-#%$3O4     ",
"  vX;.U@o##.nOO$&o4.8OjXkXw$l HO,XgoK#-@9.N$@#)+!@:+u+N@_.0.=   ",
"  fof.|#;@W ` } H@/owOM ^O,## G.B#S#COj#s$++l+C.^@g@sobX5.sOz   ",
"_@3Xe $.r$6.d@dXnXdo'O| ~ uXS.iX+$^ $ 5#Jo-$:@q@J@ %_+!@eO6@K.= ",
"N h@$.]+8 ;#I+}+H.W.% )Xp.g Q.9+U ]$You D$t$yOY c.=XuO/$|+*ow@h ",
"y@uo%.+@EXi *#g+%OR@eXa.@@_XD#<oc$m+n@M.x Lo3$x#q.F#!.ro<OD@Z+:.",
" $DO_o>.rX'X[$Oo9 >$fXtXE#+XB$<#DX:OB@$X^$C#T#`.c+ @sX:#TO0Xv$@X",
"9OD+LX +R+5XXoh+s.dOs+`+}.#@U#I$F+'@+%9#9#+oU$]@o -OV$z+4$io#Ooo",
" #PXC$v+<XrOT @+5$%XkoOX7oU+toMOt#ToG Ro=oH+@ok.&X6Xi+/ MX(.- Bo",
"0#Z$>+[#a O#{OIOe+7@M#O.7X`X>OGo-X.@#+5 |X>@($_#A+@$pX`oA@fO`O.O",
"}oM+j@KXk$2@&.u@k@d$gO< VX..d#)$[@,+&O(oVoX.X@i@UO{#.%,.(.^+xoOO",
"r+o+=#<+m$]O>opor.Coa@P.0oP `#J+hoR$NO+.L#4XN.Y#o@.%.%4o5of#.+|o",
"H 1@N+^XlXk#'og$/#/O1+WO .qo]o<.WXjOR#$@'#E@l.]#X%W#]XO+4oV#; co",
"Y@W$;X,@B+!+).y#1.Y XOX+g.6 voS 4OCXY$y$3@TXL.l$zX~@0 *.kOO@p+ o",
"#oQXyogX&$K@$od+.$$+ZO6#0O1omXZoq J.:X4@f$+O8X/+Pom#=.Q lO{$6$@X",
"2.f@1#c#7#@%!X~.Woz.L@2#h$qX' I.~Oz$F$#$j+iO#%~+c ##FX;o!$2+YO:.",
"& 4+$%GX2oaoj l@No[ox.A$s G$~#w.NX*$0+mOEoD.>XO b p$W@D B !#woh ",
"  ]..#3.$#t.*X8oq#S@FO( y.%%tOX$7$/@V+P#/X| }$A Q$) Q+;$Z.5+K.= ",
"  = u#v.G#o%3#|.Qo[XhXl#G+U.K+I ,oHX}Op L++ V 5Ok+%+;OhOpO6oz   ",
"    t cOb$BOR xXZXz@{@s@(XJ$Aoa$a$cX,$(#<@'+* e@o.<$n JOqO7.=   ",
"      J {X] u.o$~$j$P@Z#.o.%.%.%.%.%RO1 E : F@9Xm@Ho> (O'.4     ",
"      & [ 9$h.KO(@,OY+0$V@t@^.C@{ w#boY.X#1$K M$$$_ [O1Xt       ",
"        = ! S+b.6+SoA#9@=$@O%@|@IXv#L &+QO, 6Ow LOzO Xy         ",
"          & m !oyXe.x@3oE+v AXoOvO/.M@I#Io_$@ C+joj.7           ",
"              4 -.b#P+*+%#H#:$K$)o#X OT+n.q+KooXF =             ",
"                & r [  X:oOOI@}@A.3+7OcoSXB.F 2                 "
};
