/* XPM */
static char *graphic[] = {
/* width height num_colors chars_per_pixel */
"16 16 216 2", 
/* colors */
"   c #AEABA1",
".  c #E7C002",
"X  c #E49000",
"o  c #2F9C00",
"O  c #87A604",
"+  c #F9FFFF",
"@  c #9E9E0E",
"#  c #A08433",
"$  c #4D8B00",
"%  c #206700",
"&  c #ECA600",
"*  c #D0B70D",
"=  c #CF9400",
"-  c #BBA47C",
";  c #86810D",
":  c #F6D545",
">  c #DF8103",
",  c #5FA900",
"<  c #F3BA04",
"1  c #3C9A00",
"2  c #A88314",
"3  c #CD8617",
"4  c #ACA594",
"5  c #719E00",
"6  c #90850B",
"7  c #C5BA9E",
"8  c #BB9908",
"9  c #D9C20B",
"0  c #CBD0DA",
"q  c #F9B610",
"w  c #6D7700",
"e  c #828A09",
"r  c #63A500",
"t  c #086400",
"y  c #FFC800",
"u  c #D7CA06",
"i  c #CEA600",
"p  c #BCBFC8",
"a  c #AB9A0E",
"s  c #567304",
"d  c #E3B51D",
"f  c #FFD500",
"g  c #FEFFFF",
"h  c #D4A811",
"j  c #DC9D00",
"k  c #5E9F00",
"l  c #2A7800",
"z  c #DFA200",
"x  c #FFCB27",
"c  c #0F6500",
"v  c #CFCDCD",
"b  c #FFC600",
"n  c #2A8500",
"m  c #84960B",
"M  c #FCCE00",
"N  c #E8BE00",
"B  c #FFD300",
"V  c #D9C378",
"C  c #DACDAA",
"Z  c #D88300",
"A  c #FAFFFF",
"S  c #F3FCFF",
"D  c #C2C8D8",
"F  c #BAA06C",
"G  c #EBB400",
"H  c #FFE606",
"J  c #096600",
"K  c #819D00",
"L  c #D7BF0C",
"P  c #FFD100",
"I  c #CE980F",
"U  c #CCCDC8",
"Y  c #756712",
"T  c #FFD71D",
"R  c #FFC401",
"E  c #145800",
"W  c #B57200",
"Q  c #3A7900",
"!  c #FD9708",
"~  c #105A00",
"^  c #667F03",
"/  c #82860B",
"(  c #126600",
")  c #72760D",
"_  c #AE7D24",
"`  c #FFC200",
"'  c #C2C4D7",
"]  c #2B8700",
"[  c #349600",
"{  c #124A00",
"}  c #D57C02",
"|  c #FFFFFF",
" . c #A6906F",
".. c #408100",
"X. c #B58E4C",
"o. c #E7C31A",
"O. c #FFAB11",
"+. c #FFD564",
"@. c #C79C24",
"#. c #D6D1C8",
"$. c #CC9728",
"%. c #2C8B00",
"&. c #ABA092",
"*. c #FFDA00",
"=. c #CAC437",
"-. c #205B00",
";. c #A97F2C",
":. c #FFC232",
">. c #CA9100",
",. c #FFEC3F",
"<. c #4C9300",
"1. c #FFD62C",
"2. c #FFFFFF",
"3. c #406300",
"4. c #469802",
"5. c #629D08",
"6. c #40A600",
"7. c #908A0E",
"8. c #FEFEFE",
"9. c #A08F6F",
"0. c #075200",
"q. c #8C7411",
"w. c #317E00",
"e. c #919709",
"r. c #FFCA3B",
"t. c #1F7A00",
"y. c #C6D42F",
"u. c #F6AF03",
"i. c #FED528",
"p. c #FFC947",
"a. c #FFC72E",
"s. c #EFA800",
"d. c #CA8D00",
"f. c #F0AE00",
"g. c #BAA02C",
"h. c #075D00",
"j. c #1A7400",
"k. c #4EA307",
"l. c #375202",
"z. c #8F7510",
"x. c #EADCA6",
"c. c #5D7E00",
"v. c #7FAC15",
"b. c #B08C54",
"n. c #C5BBA1",
"m. c #8FB222",
"M. c #FFD400",
"N. c #B06400",
"B. c #FEFEFF",
"V. c #E4CD6B",
"C. c #E19300",
"Z. c #66A207",
"A. c #259C00",
"S. c #D4BC78",
"D. c #D8B848",
"F. c #F4D145",
"G. c #FFC932",
"H. c #FFA513",
"J. c #C89900",
"K. c #B2A690",
"L. c #D5D6D0",
"P. c #AE8A2D",
"I. c #359200",
"U. c #B4BA1F",
"Y. c #F0DA40",
"T. c #289200",
"R. c #1C5500",
"E. c #AA9512",
"W. c #3F6804",
"Q. c #D6D2C5",
"!. c #C17A00",
"~. c #E98E0D",
"^. c #EC9F00",
"/. c #BFBFC7",
"(. c #478700",
"). c #F0AA00",
"_. c #FFEC46",
"`. c #186400",
"'. c #E2A400",
"]. c #D78918",
"[. c #AD9D6A",
"{. c #368900",
"}. c #FFC300",
"|. c #2F8600",
" X c #F09405",
".X c #3E5E02",
"XX c #44560A",
"oX c #D5CDBF",
"OX c #946F23",
"+X c #EEF5FF",
"@X c #FFD528",
"#X c #8EB802",
"$X c #CFD4DA",
"%X c #FCC542",
"&X c #EDE4BC",
"*X c #726C11",
"=X c #6C8A05",
"-X c #AB9E6C",
";X c #497903",
":X c #268200",
">X c #E1DBD2",
",X c #389300",
"<X c #107300",
"1X c #EBB20D",
"2X c #8A7810",
"3X c #B1A78F",
"4X c #226800",
"5X c #566C05",
"6X c #D8BA4F",
"7X c #FEB900",
"8X c #FFAB06",
"9X c #809805",
"0X c #797D08",
"qX c #D5CD33",
"wX c #C29D12",
"eX c #DD8000",
/* pixels */
"8.B.| | g &XV.D.6XS.>Xg | | B.8.",
"B.2.2.x.. M P b R 7Xj @.#.2.2.B.",
"| 2.V G y u #Xk $ ^ 8 s.= n.2.| ",
"| C '.< O T.Z.6.,Xm.t.0Xu.>.v | ",
"A I ).9Xn {.a.y.K ,.4.:X6 & P.+ ",
"oX^.h j...|.E.i.@ T [ I.l 1Xz 0 ",
"F 8X/ c $.: Q c.w.<., qX%.a ` K.",
"X.O.s ( *Xr.=XU.Y.v.o._.1 e f -X",
"b.H.5X`.% .X3.d @Xm w 5 A.e.*.[.",
"- ! 2X~ 4X) %X+.x F.=.k.o L B 3X",
"L.Z 3 R.E OX:.p.x G.1.5.r H N ' ",
"| _ } q.0.{ l.XXY W.;X] 9 M.g.+X",
"| Q.!.~.z.-.h.t J <X(.* }.i /.| ",
"| 2.7 W > ].2 ; 7.wXq f.J.  2.| ",
"B.2.2.U ;.N.eX XX C.d.# p 2.2.| ",
"8.B.| | g $X&. .9.4 D S | | | 8."
};
