/* XPM */
static char *graphic[] = {
/* width height num_colors chars_per_pixel */
"32 32 817 2", 
/* colors */
"   c #1E8400",
".  c #D0881E",
"X  c #F9CF00",
"o  c #E79D1E",
"O  c #ADA898",
"+  c #926D18",
"@  c #EDAB0A",
"#  c #FFED86",
"$  c #FFDE56",
"%  c #2C6100",
"&  c #FEB21E",
"*  c #AB840F",
"=  c #F2AB1E",
"-  c #205A00",
";  c #E3BF0B",
":  c #FAD114",
">  c #B3811C",
",  c #C3881E",
"<  c #FFF15B",
"1  c #7D700B",
"2  c #FFF32E",
"3  c #A96600",
"4  c #246500",
"5  c #FFE012",
"6  c #669402",
"7  c #276A00",
"8  c #2C6E00",
"9  c #BE7C00",
"0  c #B47400",
"q  c #347700",
"w  c #B8BED1",
"e  c #BC9313",
"r  c #3E7F00",
"t  c #E7C10F",
"y  c #2D7400",
"u  c #F8CB1A",
"i  c #FFD918",
"p  c #FCD70F",
"a  c #3A8100",
"s  c #6A9606",
"d  c #957913",
"f  c #357D00",
"g  c #FFE62F",
"h  c #9C760E",
"j  c #F3C115",
"k  c #CA9000",
"l  c #FFD313",
"z  c #FFE070",
"x  c #FFCA17",
"c  c #AD7E00",
"v  c #469500",
"b  c #889609",
"n  c #3F3F0A",
"m  c #A08232",
"M  c #CC9C00",
"N  c #3F9200",
"B  c #AE8400",
"V  c #EEF3FF",
"C  c #429700",
"Z  c #157300",
"A  c #278400",
"S  c #3A5A02",
"D  c #459C00",
"F  c #FFC31D",
"G  c #DCE5F9",
"H  c #BFC01F",
"J  c #2A8900",
"K  c #947D34",
"L  c #F5B80F",
"P  c #768308",
"I  c #D5C60C",
"U  c #CC9C18",
"Y  c #FABB1A",
"T  c #ECAA1C",
"R  c #346800",
"E  c #FFC93A",
"W  c #CDB871",
"Q  c #8C940A",
"!  c #E9AE01",
"~  c #BD7400",
"^  c #EB9D22",
"/  c #F4F9FF",
"(  c #B77A0E",
")  c #3A7200",
"_  c #FBC411",
"`  c #269800",
"'  c #6E7605",
"]  c #F59C26",
"[  c #E8F2FF",
"{  c #FFB820",
"}  c #3B7800",
"|  c #206500",
" . c #236A00",
".. c #2D7200",
"X. c #CB7E04",
"o. c #418200",
"O. c #FAC215",
"+. c #AF8615",
"@. c #307700",
"#. c #A9ADC3",
"$. c #599D00",
"%. c #4F9500",
"&. c #FFD113",
"*. c #C69000",
"=. c #DFA400",
"-. c #E9A51D",
";. c #FFC817",
":. c #AEBC32",
">. c #FFDC11",
",. c #D8BD47",
"<. c #E9B01B",
"1. c #4E9C00",
"2. c #AFB6CE",
"3. c #638D03",
"4. c #F0AD16",
"5. c #E6C20C",
"6. c #E6B400",
"7. c #FED20E",
"8. c #54A600",
"9. c #FBFEFF",
"0. c #439B00",
"q. c #F0B814",
"w. c #FDCE10",
"e. c #EAF3FF",
"r. c #E7BA00",
"t. c #F3B804",
"y. c #2D8C00",
"u. c #EDC322",
"i. c #E8D149",
"p. c #9B7F12",
"a. c #EABF00",
"s. c #FFD24F",
"d. c #FFD932",
"f. c #E5BB00",
"g. c #42A200",
"h. c #CC9A18",
"j. c #F0A527",
"k. c #346600",
"l. c #FFD114",
"z. c #AB8306",
"x. c #DCD1A4",
"c. c #F6D300",
"v. c #E7C700",
"b. c #FFC818",
"n. c #FEFFFF",
"m. c #F3AD1E",
"M. c #3A7000",
"N. c #FFD40B",
"B. c #215C00",
"V. c #125000",
"C. c #BC7C0E",
"Z. c #B09031",
"A. c #8F7628",
"S. c #C88000",
"D. c #6F9404",
"F. c #CAD0DE",
"G. c #778C01",
"H. c #165B00",
"J. c #DAB306",
"K. c #3C7C00",
"L. c #CEBD09",
"P. c #377800",
"I. c #0F5800",
"U. c #629D00",
"Y. c #C99317",
"T. c #428600",
"R. c #1A6600",
"E. c #297200",
"W. c #E7B615",
"Q. c #EBAE10",
"!. c #F3B419",
"~. c #AD7A00",
"^. c #C1A013",
"/. c #8F6710",
"(. c #D39B00",
"). c #287900",
"_. c #DBA400",
"`. c #433B0C",
"'. c #308200",
"]. c #FAB01F",
"[. c #D9A500",
"{. c #6E710F",
"}. c #905F04",
"|. c #EDC430",
" X c #E59C21",
".X c #8E7830",
"XX c #CCD5E7",
"oX c #3E9500",
"OX c #7A690E",
"+X c #348D00",
"@X c #EAF1FF",
"#X c #464B0A",
"$X c #A68109",
"%X c #CED1D6",
"&X c #4BA200",
"*X c #288600",
"=X c #6E620E",
"-X c #796510",
";X c #79A40C",
":X c #50A600",
">X c #F2B716",
",X c #308F00",
"<X c #B6B9B6",
"1X c #248800",
"2X c #47A400",
"3X c #FAC016",
"4X c #FFC02A",
"5X c #FFD810",
"6X c #FCDE0E",
"7X c #F8CC14",
"8X c #D09E08",
"9X c #D2CA52",
"0X c #AEB1C6",
"qX c #E09407",
"wX c #FEC21A",
"eX c #F49D24",
"rX c #E6A020",
"tX c #EBA930",
"yX c #2C6800",
"uX c #185800",
"iX c #A66E05",
"pX c #E1BC0D",
"aX c #FFD74A",
"sX c #347100",
"dX c #D4DBEE",
"fX c #FFDC14",
"gX c #345701",
"hX c #327200",
"jX c #BC8417",
"kX c #CBC09E",
"lX c #FFE41B",
"zX c #B87900",
"xX c #125B00",
"cX c #FBCF2A",
"vX c #EEBE3E",
"bX c #3A7B00",
"nX c #916A15",
"mX c #A26A00",
"MX c #156000",
"NX c #317900",
"BX c #A87619",
"VX c #FFE61D",
"CX c #438A00",
"ZX c #398200",
"AX c #CCC31B",
"SX c #F4C115",
"DX c #999FB0",
"FX c #C3970E",
"GX c #EE9C21",
"HX c #FFE81F",
"JX c #F1B51B",
"KX c #54A200",
"LX c #C7CFE7",
"PX c #FFBD1D",
"IX c #AFB4CD",
"UX c #ADB6C5",
"YX c #FBAB23",
"TX c #BC9100",
"RX c #5CAB00",
"EX c #284E00",
"WX c #FEFFFF",
"QX c #FFC81B",
"!X c #FFEF31",
"~X c #328C00",
"^X c #BB751C",
"/X c #D1A700",
"(X c #F4CB4D",
")X c #449D00",
"_X c #3A9500",
"`X c #563E14",
"'X c #90712D",
"]X c #E89B1E",
"[X c #FAC95A",
"{X c #FFDC44",
"}X c #2F9400",
"|X c #677C06",
" o c #627806",
".o c #FFD858",
"Xo c #FFC418",
"oo c #F8CA14",
"Oo c #356800",
"+o c #A49E0C",
"@o c #EDAA1C",
"#o c #DDA31A",
"$o c #F2C216",
"%o c #FFD12F",
"&o c #D59C1C",
"*o c #3B7200",
"=o c #986C0A",
"-o c #FCCD0D",
";o c #B67817",
":o c #FFE64D",
">o c #E19124",
",o c #81A104",
"<o c #D3CAAF",
"1o c #377400",
"2o c #327000",
"3o c #EBF3FE",
"4o c #F0DC95",
"5o c #DAA515",
"6o c #FFE16C",
"7o c #87723C",
"8o c #935C00",
"9o c #FFD82A",
"0o c #FADB0D",
"qo c #D1D8F2",
"wo c #FCC00E",
"eo c #196900",
"ro c #BC7E14",
"to c #BD8800",
"yo c #B3AFAC",
"uo c #E0B40E",
"io c #FFD813",
"po c #E1E9FD",
"ao c #82A20C",
"so c #2C8000",
"do c #409000",
"fo c #886C32",
"go c #489900",
"ho c #398D00",
"jo c #8D7A0C",
"ko c #419600",
"lo c #F0F7FF",
"zo c #62570E",
"xo c #D8A414",
"co c #3F9700",
"vo c #837964",
"bo c #E0991A",
"no c #95690D",
"mo c #E0B100",
"Mo c #B5BCD0",
"No c #D8B80E",
"Bo c #389400",
"Vo c #409D00",
"Co c #D2B520",
"Zo c #8B6018",
"Ao c #D3AE09",
"So c #FFCB14",
"Do c #3E9E00",
"Fo c #90949F",
"Go c #9D6C08",
"Ho c #CB8E01",
"Jo c #CED6EA",
"Ko c #F0EEEC",
"Lo c #3AA000",
"Po c #FAD212",
"Io c #EA9D17",
"Uo c #DA8A22",
"Yo c #FFFFFF",
"To c #FAC743",
"Ro c #C8BE0C",
"Eo c #F2CF00",
"Wo c #366C00",
"Qo c #7E7458",
"!o c #E4ECFC",
"~o c #7F602A",
"^o c #F4A422",
"/o c #256100",
"(o c #346D00",
")o c #326E00",
"_o c #E89D22",
"`o c #FEA326",
"'o c #3A7700",
"]o c #EDB813",
"[o c #FFDC2F",
"{o c #B67600",
"}o c #3D7C00",
"|o c #EDAF17",
" O c #2C7100",
".O c #408100",
"XO c #CACFD7",
"oO c #F3B917",
"OO c #F2BE15",
"+O c #499000",
"@O c #FFDA45",
"#O c #E9C84E",
"$O c #DFA01B",
"%O c #5F7C05",
"&O c #DCA400",
"*O c #4F9A00",
"=O c #F8DC0F",
"-O c #257B00",
";O c #E0BF25",
":O c #ECCC59",
">O c #328800",
",O c #B6BECE",
"<O c #E5C403",
"1O c #F0BB12",
"2O c #F1CA54",
"3O c #E8C60C",
"4O c #FAFDFF",
"5O c #248200",
"6O c #FFE01C",
"7O c #E3C330",
"8O c #3B6100",
"9O c #FFDB0C",
"0O c #FFC914",
"qO c #FFD334",
"wO c #A98A12",
"eO c #D88720",
"rO c #7C7A0C",
"tO c #EAB516",
"yO c #ECB70D",
"uO c #E09703",
"iO c #D1D4DA",
"pO c #E5C510",
"aO c #EEBF38",
"sO c #EFD854",
"dO c #2C6200",
"fO c #FFE639",
"gO c #DCA323",
"hO c #225A00",
"jO c #40A800",
"kO c #E2EBFF",
"lO c #1E5C00",
"zO c #2D6800",
"xO c #C6D0E6",
"cO c #EEAE1E",
"vO c #8E7943",
"bO c #866E2A",
"nO c #246600",
"mO c #B6AC8E",
"MO c #4E5909",
"NO c #9BBE16",
"BO c #619C00",
"VO c #A48613",
"CO c #448A00",
"ZO c #478F00",
"AO c #519700",
"SO c #B98600",
"DO c #E5B40E",
"FO c #495A02",
"GO c #FFDC60",
"HO c #957E2E",
"JO c #A37C10",
"KO c #489500",
"LO c #257900",
"PO c #EBBB17",
"IO c #F3D560",
"UO c #7A5812",
"YO c #287E00",
"TO c #8E6812",
"RO c #FFFFFF",
"EO c #FFEC28",
"WO c #449700",
"QO c #314306",
"!O c #F1C517",
"~O c #F7BD36",
"^O c #FCCB10",
"/O c #2E8800",
"(O c #F1F1FB",
")O c #7AA503",
"_O c #DAB000",
"`O c #4DA600",
"'O c #52AA00",
"]O c #F0B218",
"[O c #3A9C00",
"{O c #C79A0D",
"}O c #2B9000",
"|O c #AC7F06",
" + c #FCD810",
".+ c #FBC018",
"X+ c #366800",
"o+ c #F0C736",
"O+ c #3C5E06",
"++ c #BF871C",
"@+ c #FEFEFE",
"#+ c #D7C89D",
"$+ c #CC941C",
"%+ c #FFD414",
"&+ c #EFF6FF",
"*+ c #BBBBBC",
"=+ c #FAAA22",
"-+ c #306B00",
";+ c #D7CA9C",
":+ c #EDF7FF",
">+ c #246400",
",+ c #7C786A",
"<+ c #FFD22A",
"1+ c #256A00",
"2+ c #B07500",
"3+ c #7E5210",
"4+ c #F0EBE2",
"5+ c #3F8400",
"6+ c #6E9E04",
"7+ c #D6DEFC",
"8+ c #B79015",
"9+ c #388100",
"0+ c #D4B00A",
"q+ c #F7C017",
"w+ c #63A600",
"e+ c #4F9600",
"r+ c #277600",
"t+ c #FBD672",
"y+ c #FFD040",
"u+ c #227200",
"i+ c #EBA51D",
"p+ c #827660",
"a+ c #D09900",
"s+ c #B28100",
"d+ c #489300",
"f+ c #F4C615",
"g+ c #6E610A",
"h+ c #EDBE05",
"j+ c #469400",
"k+ c #B47318",
"l+ c #D7C89E",
"z+ c #C29300",
"x+ c #EBC70C",
"c+ c #F9AF21",
"v+ c #B68C00",
"b+ c #F4CB54",
"n+ c #F2CB30",
"m+ c #D7A900",
"M+ c #D8AF00",
"N+ c #379500",
"B+ c #EFB516",
"V+ c #C9A300",
"C+ c #359600",
"Z+ c #8A6118",
"A+ c #3D9F00",
"S+ c #298F00",
"D+ c #A09B92",
"F+ c #184E00",
"G+ c #1D5200",
"H+ c #EFC014",
"J+ c #DF9C1C",
"K+ c #F1CA12",
"L+ c #9C6703",
"P+ c #E7C800",
"I+ c #FCBB1C",
"U+ c #175500",
"Y+ c #A6AD0A",
"T+ c #CCD1D6",
"R+ c #105200",
"E+ c #AEB3CE",
"W+ c #3A7302",
"Q+ c #397800",
"!+ c #E79C09",
"~+ c #C27E12",
"^+ c #F4C213",
"/+ c #156300",
"(+ c #297300",
")+ c #816227",
"_+ c #B6710D",
"`+ c #B18617",
"'+ c #FBB612",
"]+ c #FEFEFE",
"[+ c #2A7900",
"{+ c #A8AEB0",
"}+ c #E4C00A",
"|+ c #4D4D08",
" @ c #E08E23",
".@ c #2B7F00",
"X@ c #E8AD36",
"o@ c #56A400",
"O@ c #D9A600",
"+@ c #429400",
"@@ c #338800",
"#@ c #479800",
"$@ c #376305",
"%@ c #F69F25",
"&@ c #DD9208",
"*@ c #B08202",
"=@ c #439A00",
"-@ c #80AB03",
";@ c #50A700",
":@ c #469F00",
">@ c #F2FBFF",
",@ c #4C5F06",
"<@ c #A06908",
"1@ c #49A400",
"2@ c #E1991C",
"3@ c #CFBA30",
"4@ c #B29609",
"5@ c #DAAA16",
"6@ c #346500",
"7@ c #EDB618",
"8@ c #FFDA34",
"9@ c #376A00",
"0@ c #F8D610",
"q@ c #EEBD0D",
"w@ c #D49115",
"e@ c #FEFEFF",
"r@ c #329C00",
"t@ c #FFB615",
"y@ c #306700",
"u@ c #FCFFFF",
"i@ c #F0BE0F",
"p@ c #8EA606",
"a@ c #DBAA11",
"s@ c #DAA613",
"d@ c #EAA122",
"f@ c #B57500",
"g@ c #E4DCCA",
"h@ c #866D23",
"j@ c #E6AF15",
"k@ c #337900",
"l@ c #FEDC0D",
"z@ c #1F2A04",
"x@ c #CD9E0C",
"c@ c #7D6D3C",
"v@ c #8C7213",
"b@ c #226E00",
"n@ c #DCC60D",
"m@ c #F4C215",
"M@ c #A3A3A0",
"N@ c #F1C51C",
"B@ c #509800",
"V@ c #4B9400",
"C@ c #287800",
"Z@ c #FFE331",
"A@ c #FFE66E",
"S@ c #146800",
"D@ c #68A50B",
"F@ c #9FA609",
"G@ c #C6B272",
"H@ c #D9A910",
"J@ c #3D8E00",
"K@ c #479600",
"L@ c #DCAE10",
"P@ c #FEA625",
"I@ c #ADB7C5",
"U@ c #B28A00",
"Y@ c #DAAA00",
"T@ c #F4F8FF",
"R@ c #D3A700",
"E@ c #379100",
"W@ c #3C9500",
"Q@ c #D8931A",
"!@ c #FFC748",
"~@ c #C07A1C",
"^@ c #FFCC12",
"/@ c #4CA700",
"(@ c #F3B91F",
")@ c #A06613",
"_@ c #B2800F",
"`@ c #E1BA00",
"'@ c #FCC914",
"]@ c #ADA9A2",
"[@ c #F7B921",
"{@ c #71710C",
"}@ c #43A500",
"|@ c #2D6000",
" # c #F19B10",
".# c #FFE20E",
"X# c #9A7506",
"o# c #F1C814",
"O# c #997108",
"+# c #40350D",
"@# c #FED900",
"## c #245E00",
"$# c #EDA220",
"%# c #AE7017",
"&# c #CAD2EE",
"*# c #115400",
"=# c #FFE534",
"-# c #95B328",
";# c #FFCA11",
":# c #FFD218",
"># c #266A00",
",# c #E7BC11",
"<# c #BEBEC0",
"1# c #D79600",
"2# c #65680B",
"3# c #9E9988",
"4# c #458800",
"5# c #9DA4B7",
"6# c #FEC815",
"7# c #66A500",
"8# c #D2A20E",
"9# c #287600",
"0# c #304004",
"q# c #ACA389",
"w# c #C4B89B",
"e# c #FDCF15",
"r# c #4C9800",
"t# c #ECBC0E",
"y# c #C88306",
"u# c #D49E00",
"i# c #B1760D",
"p# c #FBD015",
"a# c #E39A21",
"s# c #3E9200",
"d# c #F6CD39",
"f# c #6F9105",
"g# c #E8B512",
"h# c #C4A320",
"j# c #DFA814",
"k# c #DBAE00",
"l# c #53A800",
"z# c #EDC23D",
"x# c #8F8F9F",
"c# c #DE9B1A",
"v# c #E1B800",
"b# c #409E00",
"n# c #5C8100",
"m# c #A9904F",
"M# c #F8D210",
"N# c #3E9F00",
"B# c #386102",
"V# c #CC9B06",
"C# c #FBD200",
"Z# c #463B0B",
"A# c #FFD712",
"S# c #E7A11E",
"D# c #FBCE14",
"F# c #386C00",
"G# c #FFE305",
"H# c #977518",
"J# c #AC801A",
"K# c #D4A311",
"L# c #B77000",
"P# c #F8FDFF",
"I# c #2D6B00",
"U# c #1E5F00",
"Y# c #236300",
"T# c #FFD018",
"R# c #3A7800",
"E# c #EECC41",
"W# c #947A21",
"Q# c #E8EAF0",
"!# c #6AA100",
"~# c #1B3100",
"^# c #276E00",
"/# c #9DA2B7",
"(# c #4D8F00",
")# c #988011",
"_# c #867A55",
"`# c #CD9C0E",
"'# c #4B9000",
"]# c #FFCE2E",
"[# c #B1A80B",
"{# c #D7A40E",
"}# c #A9960F",
"|# c #4E9500",
" $ c #BDC429",
".$ c #E09C1D",
"X$ c #519A00",
"o$ c #847A60",
"O$ c #C39100",
"+$ c #7C9107",
"@$ c #738409",
"#$ c #F4B71B",
"$$ c #CB9A00",
"%$ c #1B7400",
"&$ c #FFD837",
"*$ c #F29B25",
"=$ c #A8ACB4",
"-$ c #DFE4F0",
";$ c #FFDB2E",
":$ c #CE8501",
">$ c #4EA200",
",$ c #58AA00",
"<$ c #E39A23",
"1$ c #FAFEFF",
"2$ c #5A580C",
"3$ c #E0A531",
"4$ c #574A10",
"5$ c #E0AC14",
"6$ c #2C8C00",
"7$ c #EBBE00",
"8$ c #48A500",
"9$ c #5F8400",
"0$ c #F7B818",
"q$ c #FFD607",
"w$ c #9C9D96",
"e$ c #F3C314",
"r$ c #4BAA00",
"t$ c #BEC6E4",
"y$ c #306100",
"u$ c #DFAE04",
"i$ c #A9850D",
"p$ c #FFC91F",
"a$ c #49AB00",
"s$ c #C78A37",
"d$ c #CFA60D",
"f$ c #F0C016",
"g$ c #D6941E",
"h$ c #134F00",
"j$ c #316700",
"k$ c #95A721",
"l$ c #1B5800",
"z$ c #EFA219",
"x$ c #F4C606",
"c$ c #EBA122",
"v$ c #669602",
"b$ c #BCBCB5",
"n$ c #DEDEDA",
"m$ c #F3BC03",
"M$ c #FAC70A",
"N$ c #F3C40A",
"B$ c #DAA417",
"V$ c #979BB0",
"C$ c #DE9C12",
"Z$ c #DCDEE2",
"A$ c #FFC842",
"S$ c #BFAE0D",
"D$ c #967615",
"F$ c #A59269",
"G$ c #7C6A0A",
"H$ c #FFDE0F",
"J$ c #7D6630",
"K$ c #CB9800",
"L$ c #B17118",
"P$ c #EAA41F",
"I$ c #FFE011",
"U$ c #378B00",
"Y$ c #D7AF0E",
"T$ c #DCC362",
"R$ c #D7A612",
"E$ c #EECF0C",
"W$ c #369200",
"Q$ c #C0C2C0",
"!$ c #409A00",
"~$ c #C39C00",
"^$ c #208300",
/* pixels */
"@+]+]+]+]+]+]+e@YoYoYou@(Og@x.#+l+<on$&+YoYoYoYoe@]+]+]+]+]+]+@+",
"]+RORORORORORORORO4+T$Ao_Or.k#R@6.[.O$z+Z.w#V RORORORORORORORO]+",
"]+ROROROROROROKo,.v#c.v.<O +pX0+o#,#uoN$K$SO* mOloRORORORORORO]+",
"]+RORORORORO;+/X`@P+6XE$x+iol l.i 0OSoe$L@DOt.tom iORORORORORO]+",
"]+ROROROROW m+X }+; A#I$p I Y++$@$rOVOB$>Xx W.8X*.JO*+RORORORO]+",
"]+ROROROG@M M+K+e#^@n@-@&XLoA+b#VoN+*X| MOU oOR$g#! O#<#RORORO]+",
"]+ROROkX$$h+d$1O'@p@oX[Og./@`Oo@KXC $.ko6$7 OXY b.8#a+H#F.RORO]+",
"n.ROQ#*@O@m@q+f$v$+Xgo0.G.Cow+1@8$9${X9Xho+@9#2$]OtOO.(.vO@XROYo",
"YoROm#=.H@s@.+3.@@+OB@J@`#< sO;@}X4@VXz '#V@KOC@=XQXa@V#s+M@ROYo",
"YoZ$~.L 5o|oQ .@CX(#|#U$FXlX:oNOA i@.#@Od+r#e+K@ .+.q.{O_.bOpoYo",
"YoF$1#7@I+5@@.ZXT.COZOE@1 8@=#AXLOqOEOpOW@X$AO%.N O+0$OO_ c =$Yo",
"Yo+ @ <.{ P r+a K.n#5+y.dO&o!XNo-O(@HXF@b#1.#@j+v ).8+T#SX&Oo$n.",
"-$mX4.cO= )oq NX-XA$t+ao^$FOQ@jo}OG$i$*O}@=@)O;Xs#W$2#:#$om$h@kO",
"Q$zXT m.h.R.'o..UOp$y+.os 1X Oso` S+C+jO&XL.Z@# U.!$$@Xof+M$X#LX",
"]@S.-.c+wO/+*ok@0#3$]#%oh#5O6+i.-#H  $r@b g 6OA@BO:@8 B+7X^OB w ",
"3#:$S#YX)#MXM.R#nO4$X@<+$+%$[#9oGO;$$ J e 2 fO;OWO>$E.j@p#w.v+#.",
"D+X.rX=+p.xX9@M.P.4 #XZozoZ ^.;#E#D#7O  h t@{#!#2Xl#y ]o: 7.TX0X",
"yo~ o ^o`+I.R F#M.} [+S@1+' Y.d#u.u xo4#eo8Odor$,$'OW+6#PoN.U@2.",
"T+3 ]X^ g$U+dOX+F#1o>#{.gO[Xb+o+t#n+(X#O:.D@Do:XRXa$|XfXM#q$$Xt$",
":+}.Io<$%@S lO6@X+2oQOj.PX2O4o:OPO|.IOcX&$6ok$D 8.N#S$5 0@C#A.7+",
"YofoqX_o`od R+|@k.I#+#!@[@Q.aOz#yOq@N@!Ox$[o3@co)X7#>.H$l@a.vo/ ",
"YoO 9 2@~@>ogXl$y$-+~#s$E 4X~OToaX3XvXs.d.F D.Bo_XRo5X=OG#~$V$Yo",
"Yo3o/.y#)@Uo> h$hOy@B.z@`X`.Z#Z+tXBX|+g+J# o~X,X,o&.5.0o@#K &#Yo",
"YoROq#f@( a#] v@V.- j$yX>+^#b@F+n EXYO'.f >O/O6 oo%+3OEoV+x#1$Yo",
"e@RO>@'XuObok+*$D$G+uX% OoF#) Q+bXr o..O9+sof#j ^+t 9Of._#qoROYo",
"]+RORO%Xno{oc# XeO, ,@*#H./ozO(osXhX(+u+}o+owX;.Y$J.7$HOE+RORO]+",
"]+ROROROb$=o!+roL$ @eX++{@B###U#Y#Wo%O}##$!.K#H+-omoW#/#4ORORO]+",
"]+RORORORO<XTO0 C.$#. ^XP@GXd@P$i+].& @oJX5$x@u$Y@.X5#T@RORORO]+",
"]+ROROROROROXO7o2+&@~+%#c$;o.$J+jX$O#o_@j#wou#z.QoIX9.RORORORO]+",
"]+ROROROROROROe.w$)+8oL# #_+z$w@i#C$'+Hok |Oc@FodXRORORORORORO]+",
"]+RORORORORORORORO!o{+p+~o3+<@iXL+GonXJ$,+DXJoWXRORORORORORORO]+",
"@+]+]+]+]+]+]+YoYoYoYoYo[ XX,OUXI@MoxOG P#YoYoYoYo]+]+]+]+]+]+@+"
};
