/* XPM */
static char *graphic[] = {
/* width height num_colors chars_per_pixel */
"16 16 232 2", 
/* colors */
"   c None",
".  c None",
"X  c None",
"o  c #FFD900",
"O  c None",
"+  c #3B608D",
"@  c #D59908",
"#  c #001873",
"$  c #4C3D08",
"%  c #FFB000",
"&  c None",
"*  c #C5B238",
"=  c None",
"-  c #0025FF",
";  c #F9C512",
":  c #EEB30F",
">  c #000C23",
",  c #3F441A",
"<  c #000019",
"1  c #000529",
"2  c #AA670E",
"3  c #01171C",
"4  c None",
"5  c #C06C00",
"6  c #CBA20B",
"7  c None",
"8  c None",
"9  c #EFD63D",
"0  c #CB7A00",
"q  c #000E3D",
"w  c #00041D",
"e  c #FFFF3A",
"r  c None",
"t  c None",
"y  c #E19600",
"u  c #00001A",
"i  c #EFCC32",
"p  c #B08509",
"a  c #C3B84A",
"s  c #B46300",
"d  c #D67900",
"f  c #D7AF12",
"g  c #2A402C",
"h  c None",
"j  c #000004",
"k  c None",
"l  c None",
"z  c #C89014",
"x  c #ECD93B",
"c  c #9A7711",
"v  c #FFE710",
"b  c None",
"n  c #7A5F1C",
"m  c #DE9C00",
"M  c #0024B0",
"N  c None",
"B  c #001831",
"V  c None",
"C  c #9BA148",
"Z  c #3B2400",
"A  c None",
"S  c #D8A124",
"D  c None",
"F  c #001A62",
"G  c #000409",
"H  c #001339",
"J  c #D07A00",
"K  c #0F3670",
"L  c #000824",
"P  c #AE6400",
"I  c #FDC208",
"U  c #FBAC00",
"Y  c #002FDE",
"T  c #A4880F",
"R  c #1C4650",
"E  c #000931",
"W  c #CC8902",
"Q  c #000A55",
"!  c #5E5816",
"~  c #C38906",
"^  c None",
"/  c None",
"(  c #E7A60A",
")  c #032C7A",
"_  c #F4C11B",
"`  c #0019CC",
"'  c #112149",
"]  c None",
"[  c #435C4E",
"{  c #000702",
"}  c #E7B108",
"|  c #F6A802",
" . c #000008",
".. c #6C611A",
"X. c #8A5A00",
"o. c #9C8113",
"O. c #C26300",
"+. c None",
"@. c #A75000",
"#. c #E19203",
"$. c #3B2F0C",
"%. c #92600A",
"&. c #002CD3",
"*. c #FDDB17",
"=. c #765B0B",
"-. c #00136C",
";. c #343D1D",
":. c #003CCA",
">. c #00249E",
",. c #3877C6",
"<. c #000B08",
"1. c #041406",
"2. c #4A2A00",
"3. c #DB9303",
"4. c #014AD1",
"5. c #EFC728",
"6. c #442D00",
"7. c None",
"8. c #DD9C0D",
"9. c #FDC908",
"0. c #2D5694",
"q. c #32311F",
"w. c #385642",
"e. c None",
"r. c #06190D",
"t. c #74663E",
"y. c #7B650C",
"u. c #B8910E",
"i. c #2D1F07",
"p. c #BC8F08",
"a. c #5E4D0F",
"s. c #002365",
"d. c #FDD110",
"f. c #000A15",
"g. c #E7AC14",
"h. c #F4E53C",
"j. c #FFCB00",
"k. c #A4B375",
"l. c #9A4C00",
"z. c #18322C",
"x. c #D6C640",
"c. c #6B540B",
"v. c None",
"b. c #000A2D",
"n. c #C2AA36",
"m. c #E39600",
"M. c #000C2F",
"N. c #7D4700",
"B. c #1D1908",
"V. c #A36800",
"C. c #0039EE",
"Z. c #ECA500",
"A. c #514106",
"S. c #633A00",
"D. c #4B2C00",
"F. c #E3B30E",
"G. c #C49314",
"H. c #FDFD38",
"J. c #D6AD23",
"K. c #162618",
"L. c #000056",
"P. c #000010",
"I. c #CE6F00",
"U. c #1D280C",
"Y. c #DFA811",
"T. c None",
"R. c #D98A00",
"E. c #C6990A",
"W. c #00143A",
"Q. c #58531A",
"!. c #BA8E07",
"~. c #8D7A15",
"^. c #131B15",
"/. c #42360F",
"(. c None",
"). c #6B5814",
"_. c #173978",
"`. c #A0841B",
"'. c #3D3103",
"]. c #F1AC14",
"[. c #C8931D",
"{. c None",
"}. c #CEC441",
"|. c #E8B310",
" X c #000A1C",
".X c #EDC922",
"XX c #00002B",
"oX c #F6E93A",
"OX c #0D3C8E",
"+X c #EDB30D",
"@X c None",
"#X c #000D2B",
"$X c #7D670B",
"%X c #0B55D2",
"&X c #000A1D",
"*X c #EA9E00",
"=X c #B98D07",
"-X c #41719B",
";X c #E5A40A",
":X c #FFFF35",
">X c None",
",X c #71691F",
"<X c #A68E18",
"1X c #ECF362",
"2X c #6C5008",
"3X c None",
"4X c None",
"5X c #C58909",
"6X c #4C6248",
"7X c #001EA4",
"8X c #5F654E",
"9X c #001735",
"0X c #AF890E",
"qX c #B38E0D",
"wX c None",
"eX c #00002D",
"rX c #D28F0C",
"tX c None",
"yX c #BEA438",
"uX c #81610F",
"iX c None",
"pX c #41390F",
"aX c None",
"sX c None",
"dX c #002571",
"fX c #909D7A",
"gX c #F4A804",
"hX c None",
"jX c #FDFD41",
"kX c #DC8B03",
"lX c #000000",
"zX c #5A5517",
/* pixels */
"      >XiXsXG.2 z [.4 8 .       ",
"    T.9 .XrX5 @.0 R.3._ wX{.    ",
"  D i jXoX8XW.G <.K.~.} ; ] 7.  ",
"3XS Y.}.%X` # H #X9Xq ;.m : v.X ",
"aXW l.F &.C.yX6XQ o.! u $ kX5.(.",
"u.y D.eX) Y fXC w.E.U.< > 6 *.4X",
"p *X{ 1.f [ a 0.t.n L , zXy.9...",
"=XZ.w b.T R >.,.-XK ,X!.r.'.% ).",
"p.I B z.$X3 |.* x x.s.q.j 6.U a.",
"0Xv g E  XB.o dX+ k.M -.XXX.| $.",
"b d.c < f.^.j.<XF.e 4.7X' m.@ h ",
"tX5X#.pX1 M./.V.%._.- :.n.].uXl ",
"+.k ( +XQ.&XP.lX .L.OX1X:XJ./ & ",
"  A qX;XgXP S.Z 2.N.g.H.h.i.r   ",
"    @XhX~ s J d I.O.8.`.V t .   ",
"      O ^ e.c.=.2XA.7 N =       "
};
